<?xml version="1.0" standalone="no"?>
<!DOCTYPE svg PUBLIC "-//W3C//DTD SVG 20010904//EN"
 "http://www.w3.org/TR/2001/REC-SVG-20010904/DTD/svg10.dtd">
<svg version="1.0" xmlns="http://www.w3.org/2000/svg"
 width="200.000000pt" height="189.000000pt" viewBox="0 0 200.000000 189.000000"
 preserveAspectRatio="xMidYMid meet">
<metadata>
Created by potrace 1.10, written by Peter Selinger 2001-2011
</metadata>
<g transform="translate(0.000000,189.000000) scale(0.100000,-0.100000)"
fill="#ffffff" stroke="none">
<path d="M341 1836 c-33 -18 -104 -105 -151 -185 -126 -213 -160 -495 -88
-730 40 -130 123 -272 216 -371 32 -32 46 -40 75 -40 45 0 77 29 77 69 0 20
-18 50 -66 107 -243 292 -247 692 -10 988 60 75 69 108 39 144 -23 28 -62 35
-92 18z m53 -26 c38 -14 35 -56 -7 -106 -19 -21 -47 -59 -62 -84 -15 -25 -31
-47 -34 -50 -12 -10 -55 -116 -81 -203 -17 -54 -22 -262 -9 -322 29 -125 79
-243 114 -267 5 -4 6 -8 2 -8 -12 0 30 -59 80 -111 37 -39 44 -52 41 -79 -2
-27 -8 -35 -31 -41 -24 -6 -35 -2 -63 24 -19 17 -32 36 -30 43 3 8 0 11 -8 8
-15 -6 -106 125 -106 151 0 8 -4 15 -8 15 -12 0 -58 112 -63 155 -1 6 -7 30
-15 55 -32 107 -22 353 20 469 8 20 19 55 26 79 8 23 19 47 27 53 7 6 13 16
13 21 0 11 79 132 107 164 15 16 50 42 60 44 1 0 13 -4 27 -10z"/>
<path d="M1559 1821 c-38 -38 -37 -60 6 -113 96 -118 158 -236 186 -353 18
-75 15 -277 -5 -355 -26 -103 -99 -240 -167 -313 -32 -36 -62 -78 -65 -94 -8
-38 25 -79 68 -85 27 -4 39 2 81 40 97 92 190 258 233 418 27 99 27 341 0 439
-43 158 -115 293 -212 393 -58 60 -83 65 -125 23z m75 -10 c13 -6 44 -36 68
-68 23 -32 45 -60 49 -63 12 -11 89 -177 89 -193 0 -9 5 -17 12 -17 6 0 9 -3
6 -6 -4 -3 -2 -20 4 -37 14 -47 29 -151 34 -238 4 -59 1 -80 -10 -92 -8 -8
-12 -18 -8 -21 11 -11 2 -77 -20 -146 -28 -85 -93 -222 -102 -213 -4 4 -4 1
-1 -8 3 -9 -5 -25 -20 -39 -14 -13 -25 -27 -25 -31 0 -4 -20 -28 -44 -52 -52
-53 -86 -65 -110 -38 -24 26 -13 57 38 113 72 79 150 207 160 266 2 15 12 56
22 92 18 68 28 258 14 275 -4 6 -10 26 -14 45 -23 142 -75 245 -197 391 -17
20 -15 52 4 77 11 14 18 15 51 3z"/>
<path d="M1841 1334 c0 -11 3 -14 6 -6 3 7 2 16 -1 19 -3 4 -6 -2 -5 -13z"/>
<path d="M817 1684 c-3 -4 1 -20 9 -36 17 -33 69 -68 100 -68 56 0 148 -71
185 -143 23 -45 18 -82 -10 -68 -9 5 -56 11 -103 12 -93 3 -138 -13 -138 -51
0 -28 49 -62 82 -58 37 6 40 -10 12 -52 -13 -19 -24 -30 -24 -25 0 17 -29 -30
-30 -48 0 -11 -4 -15 -12 -11 -6 4 -8 3 -5 -3 4 -6 1 -13 -6 -16 -7 -2 -14
-19 -15 -36 -4 -50 27 -62 147 -60 89 1 103 4 112 21 22 40 -10 85 -56 80 -18
-2 -41 -2 -51 0 -17 3 -16 7 11 32 17 16 23 26 15 22 -8 -4 -5 1 8 10 12 9 22
25 22 36 0 12 4 17 12 12 6 -4 8 -3 5 3 -4 6 2 22 13 36 11 14 20 30 20 37 0
6 5 8 11 4 8 -5 8 -1 0 14 -8 15 -8 27 0 45 13 29 -11 84 -64 144 -17 20 -25
33 -17 28 110 -64 171 -194 170 -361 0 -91 -19 -171 -39 -166 -6 1 -11 -7 -11
-18 0 -48 -72 -130 -113 -130 -10 0 -17 -4 -17 -10 0 -16 -73 -8 -100 10 -14
9 -30 15 -37 13 -20 -7 -101 106 -109 151 -3 23 -10 46 -15 52 -16 20 -22 132
-10 179 6 25 16 66 23 93 14 54 50 112 81 129 12 7 18 12 13 13 -5 0 -3 7 4
15 15 18 61 20 79 3 10 -11 11 -10 6 5 -4 9 -14 17 -22 17 -13 0 -13 3 -3 15
33 40 -58 -5 -103 -51 -76 -77 -112 -196 -105 -338 8 -140 60 -248 148 -307
55 -37 101 -44 160 -24 214 71 270 452 98 666 -25 31 -91 69 -119 69 -26 0
-29 4 -29 30 0 17 -5 30 -11 30 -7 0 -9 -11 -6 -30 l6 -29 -39 39 c-21 21 -57
48 -79 60 -45 22 -45 22 -54 14z m79 -59 c9 -8 11 -15 6 -15 -5 0 -15 7 -22
15 -7 8 -9 15 -6 15 4 0 14 -7 22 -15z m212 -288 c3 -16 -60 -121 -120 -199
l-29 -37 73 -3 c70 -3 73 -4 73 -28 l0 -25 -110 0 c-102 0 -110 1 -113 20 -1
11 28 65 68 125 l70 105 -65 3 c-68 3 -84 14 -71 47 5 13 24 15 113 13 93 -3
108 -5 111 -21z"/>
<path d="M536 1610 c-98 -90 -176 -312 -161 -455 15 -143 73 -279 158 -369 61
-64 92 -72 132 -31 38 38 33 74 -20 137 -85 99 -121 207 -113 337 7 97 37 175
99 256 56 74 61 105 23 140 -38 35 -67 31 -118 -15z m97 -4 c27 -20 21 -47
-24 -106 -51 -67 -94 -161 -99 -215 -6 -59 -5 -165 3 -204 9 -53 62 -151 106
-200 45 -50 56 -84 31 -106 -28 -25 -56 -17 -99 28 -57 59 -73 85 -65 99 4 7
3 8 -4 4 -7 -4 -12 -2 -12 5 0 7 -11 36 -25 65 -51 107 -55 340 -7 413 9 14
16 27 14 28 -7 8 22 71 31 66 5 -3 7 3 5 13 -1 9 8 30 22 44 14 15 36 39 49
54 25 29 47 32 74 12z"/>
<path d="M1336 1629 c-40 -32 -35 -74 17 -141 142 -182 139 -409 -8 -592 -30
-38 -55 -78 -55 -89 0 -24 53 -77 77 -77 59 0 168 142 215 279 33 95 32 287
-1 381 -44 125 -144 260 -193 260 -14 0 -37 -9 -52 -21z m76 -20 c44 -21 141
-194 149 -264 2 -16 8 -33 14 -37 14 -10 11 -226 -3 -240 -7 -7 -12 -22 -12
-33 0 -32 -62 -153 -109 -212 -47 -60 -82 -75 -111 -48 -30 27 -25 48 24 105
25 29 52 69 61 89 10 20 26 55 37 78 15 34 20 64 20 151 0 97 -2 113 -26 160
-14 28 -26 57 -26 64 0 7 -20 38 -45 68 -46 56 -56 95 -33 118 15 15 30 15 60
1z"/>
<path d="M908 1483 c7 -3 16 -2 19 1 4 3 -2 6 -13 5 -11 0 -14 -3 -6 -6z"/>
<path d="M1146 1362 c-2 -4 -1 -14 5 -22 7 -12 9 -10 9 8 0 23 -5 28 -14 14z"/>
<path d="M1178 1180 c2 -52 6 -97 8 -99 7 -8 3 115 -5 154 -6 27 -7 8 -3 -55z"/>
<path d="M817 1019 c4 -13 8 -18 11 -10 2 7 -1 18 -6 23 -8 8 -9 4 -5 -13z"/>
<path d="M365 350 c-12 -19 -5 -240 8 -261 17 -28 63 -44 82 -29 18 15 11 30
-15 30 -38 0 -51 40 -49 150 2 96 -8 138 -26 110z"/>
<path d="M897 354 c-4 -4 -7 -60 -7 -123 0 -129 8 -151 59 -169 23 -8 32 -7
41 3 8 10 2 18 -25 34 -33 19 -35 23 -35 75 0 49 2 55 23 58 30 4 28 32 -3 38
-22 4 -25 10 -25 44 0 37 -13 55 -28 40z"/>
<path d="M1457 273 c-9 -8 -9 -207 -1 -216 3 -3 12 -3 20 0 10 4 14 25 14 78
0 60 3 75 21 91 19 17 23 17 47 3 25 -13 27 -21 32 -92 3 -42 8 -77 13 -77 4
0 12 0 17 0 14 0 13 133 -1 163 -16 35 -51 51 -98 44 -23 -3 -41 -1 -41 4 0
11 -14 12 -23 2z"/>
<path d="M1806 272 c-3 -5 -27 -7 -53 -5 -67 7 -94 -22 -96 -101 -1 -46 3 -60
23 -82 22 -23 31 -25 72 -21 26 2 51 0 56 -5 18 -18 25 14 23 111 -2 89 -11
126 -25 103z m-26 -52 c39 -39 14 -130 -35 -130 -27 0 -55 38 -55 75 0 37 28
75 55 75 8 0 24 -9 35 -20z"/>
<path d="M175 245 c-14 -13 -25 -30 -26 -37 0 -7 -2 -24 -5 -37 -7 -40 15 -90
46 -106 41 -21 65 -19 97 9 22 20 25 27 16 37 -10 10 -16 9 -31 -4 -24 -22
-55 -22 -75 1 -26 28 -21 32 41 32 65 0 82 11 82 52 0 68 -96 103 -145 53z
m103 -42 c14 -23 14 -23 -42 -23 -61 0 -65 4 -39 32 22 24 61 20 81 -9z"/>
<path d="M495 260 c-12 -20 5 -28 50 -22 25 2 45 2 45 -2 0 -4 -22 -40 -50
-81 -52 -77 -59 -95 -37 -96 55 -2 139 0 144 5 3 3 3 12 0 19 -4 11 -17 13
-51 10 -25 -3 -46 -2 -46 2 0 4 23 39 50 79 28 40 50 78 50 84 0 15 -146 17
-155 2z"/>
<path d="M705 245 c-21 -20 -25 -34 -25 -80 0 -71 28 -105 88 -105 45 0 91 37
71 57 -9 9 -19 6 -40 -10 l-29 -21 -27 20 c-47 35 -41 44 29 44 92 0 112 30
62 89 -34 41 -92 44 -129 6z m95 -25 c31 -31 24 -40 -29 -40 -60 0 -70 11 -35
39 33 26 39 26 64 1z"/>
<path d="M1049 244 c-34 -37 -34 -121 0 -158 33 -35 92 -36 126 -1 33 33 36
119 4 159 -29 37 -95 37 -130 0z m97 -18 c14 -11 19 -26 19 -61 0 -47 -19 -75
-52 -75 -25 0 -53 39 -53 75 0 22 8 43 20 55 24 24 39 25 66 6z"/>
<path d="M1259 244 c-34 -37 -34 -121 0 -158 33 -35 92 -36 126 -1 33 33 36
119 4 159 -29 37 -95 37 -130 0z m101 -24 c39 -39 14 -130 -35 -130 -27 0 -55
38 -55 75 0 37 28 75 55 75 8 0 24 -9 35 -20z"/>
</g>
</svg>
